<svg width="208" height="205" viewBox="0 0 208 205" fill="none" xmlns="http://www.w3.org/2000/svg">
<path d="M126.57 204.649L124.869 171.565L133.471 168.256L154.172 194.062L146.61 196.992L142.073 190.943L132.998 194.44L133.66 201.908L126.57 204.649ZM131.202 176.386L132.336 188.769L138.859 186.311L131.486 176.291L131.202 176.386Z" fill="white"/>
<path d="M176.953 106.814C178.003 105.306 179.486 104.153 181.206 103.506C182.991 102.86 184.915 102.697 186.783 103.033C188.212 103.258 189.57 103.808 190.753 104.64C191.794 105.348 192.692 106.246 193.4 107.287C193.948 108.132 194.362 109.057 194.629 110.028L207.768 105.869L206.445 114.187L194.44 117.59L193.684 121.844L204.838 123.735L203.609 131.108L172.51 126.003L174.684 112.864C175.01 110.711 175.782 108.65 176.953 106.814V106.814ZM189.146 116.456C189.446 115.18 189.278 113.838 188.674 112.675C188.349 112.128 187.894 111.67 187.35 111.34C186.806 111.01 186.19 110.819 185.554 110.784C184.923 110.626 184.263 110.612 183.625 110.743C182.987 110.874 182.386 111.147 181.868 111.541C180.905 112.39 180.297 113.572 180.166 114.849L179.316 119.481L188.39 120.993L189.146 116.456Z" fill="white"/>
<path d="M144.247 41.119C143.445 39.4777 143.18 37.6256 143.491 35.8255C143.838 33.9628 144.688 32.2305 145.948 30.8156C146.869 29.6648 148.031 28.7293 149.351 28.0744C150.485 27.5687 151.703 27.2801 152.943 27.2237C153.965 27.1916 154.985 27.3192 155.968 27.6017L158.993 14.0845L165.421 19.4725L162.301 31.4773L165.704 34.3131L172.888 25.6167L178.654 30.4375L158.52 54.6362L148.217 46.1288C146.536 44.7759 145.18 43.0641 144.247 41.119V41.119ZM158.709 35.4474C157.744 34.5827 156.507 34.0813 155.212 34.0295C154.581 34.0441 153.962 34.2055 153.404 34.5008C152.846 34.7961 152.365 35.2173 151.998 35.731C151.519 36.1838 151.163 36.7514 150.965 37.3799C150.766 38.0084 150.732 38.6772 150.864 39.323C151.079 40.5634 151.754 41.677 152.754 42.4423L156.346 45.4672L162.301 38.4722L158.709 35.4474Z" fill="white"/>
<path d="M81.9541 0L82.9939 33.0841L74.2975 36.2034L54.1635 10.0198L61.7255 7.2785L66.1682 13.4227L75.3373 10.1143L74.7701 2.5522L81.9541 0ZM76.7552 28.1687L75.8099 15.7858L69.2876 18.149L76.4716 28.2633L76.7552 28.1687Z" fill="white"/>
<path d="M1.03978 84.6952L11.9103 86.2076L33.6512 78.551L32.5169 86.7748L18.8107 90.9339V91.2175L30.8155 98.9686L29.7757 106.909L11.0595 93.7697L0 92.2573L1.03978 84.6952Z" fill="white"/>
<path opacity="0.1" fill-rule="evenodd" clip-rule="evenodd" d="M103.042 73.947C108.824 73.842 114.498 75.5252 119.287 78.7664C124.076 82.0076 127.748 86.6488 129.8 92.0555C131.851 97.4622 132.184 103.371 130.751 108.973C129.318 114.576 126.189 119.599 121.794 123.357C117.398 127.114 111.949 129.423 106.191 129.966C105.412 130.04 104.72 129.468 104.646 128.688C104.573 127.909 105.145 127.217 105.925 127.143C111.101 126.655 115.999 124.579 119.951 121.201C123.903 117.823 126.715 113.307 128.003 108.271C129.292 103.234 128.993 97.9223 127.148 93.0617C125.304 88.2011 122.003 84.0288 117.698 81.1149C113.392 78.2011 108.292 76.688 103.094 76.7823C97.8958 76.8767 92.8538 78.574 88.6569 81.6422C84.46 84.7105 81.313 88.9999 79.6461 93.9242C77.9792 98.8486 77.8736 104.168 79.3439 109.154C79.5653 109.905 79.1359 110.694 78.3848 110.915C77.6337 111.137 76.8453 110.707 76.6238 109.956C74.9884 104.409 75.1058 98.4926 76.96 93.015C78.8143 87.5373 82.3148 82.766 86.9833 79.353C91.6518 75.94 97.2603 74.052 103.042 73.947Z" fill="white" stroke="white" stroke-miterlimit="10" stroke-linecap="round"/>
</svg>
